<?xml version="1.0" encoding="UTF-8"?>
<svg width="44px" height="44px" viewBox="0 0 44 44" version="1.1" xmlns="http://www.w3.org/2000/svg" xmlns:xlink="http://www.w3.org/1999/xlink">
    <!-- Generator: Sketch 47.1 (45422) - http://www.bohemiancoding.com/sketch -->
    <title>Foxy toolbar - listening</title>
    <desc>Created with Sketch.</desc>
    <defs></defs>
    <g id="Page-1" stroke="none" stroke-width="1" fill="none" fill-rule="evenodd">
        <g id="Timer" transform="translate(-320.000000, -239.000000)">
            <g id="notification---timer---done" transform="translate(50.000000, 228.000000)">
                <g id="Icon---timer" transform="translate(283.000000, 19.000000)">
                    <g id="Group">
                        <path d="M0,3.44067797 C0,2.15203559 0.9898251,1.03216928 2.27180893,0.871921275 L2.81733924,0.803729986 C6.43915415,0.351003122 12.2392159,0.351053651 15.8606269,0.803729986 L16.4061572,0.871921275 C17.6841236,1.03166709 18.6779661,2.15245058 18.6779661,3.44067797 C18.6779661,7.83858582 17.3214939,9.89479002 14.1290343,12.2012176 C12.6276738,13.3189814 12.2227883,13.8247542 12.2227883,14.76981 C12.2227883,15.7148657 12.6276738,16.2206385 14.1120407,17.3259383 C17.3206179,19.6441969 18.6779661,21.6909317 18.6779661,26.0508475 C18.6779661,27.3394898 17.688141,28.4593561 16.4061572,28.6196041 L16.3500676,28.6266153 C12.4576379,29.1131691 6.22020553,29.1131537 2.32789852,28.6266153 L2.27180893,28.6196041 C0.993842534,28.4598583 0,27.3390748 0,26.0508475 C0,21.6909317 1.35734824,19.6441969 4.5659254,17.3259383 C4.584903,17.3096899 4.584903,17.3096899 4.64894802,17.2596632 C6.1015361,16.1251827 6.45517783,15.660958 6.45517783,14.7217155 C6.45517783,13.7766597 6.05029227,13.2708869 4.54893179,12.1531231 C1.35734824,9.84732847 0,7.80059371 0,3.44067797 Z M7.9297541,14.7217155 C7.9297541,16.645494 6.65690213,17.5592889 5.42950917,18.5211781 C3.56569023,19.8678231 1.47457627,21.4549405 1.47457627,26.0508475 C1.47457627,26.594128 1.91339601,27.0887508 2.45470761,27.1564147 L2.51079719,27.1634259 C6.28151123,27.6347652 12.396066,27.6348138 16.1671689,27.1634259 L16.2232585,27.1564147 C16.769363,27.0881517 17.2033898,26.5937714 17.2033898,26.0508475 C17.2033898,21.4549405 15.1122759,19.8678231 13.2484569,18.5211781 C12.021064,17.6073833 10.748212,16.645494 10.748212,14.76981 C10.748212,12.8941258 12.021064,11.9322365 13.2484569,11.0184417 C15.1122759,9.67179673 17.2033898,8.08467943 17.2033898,3.44067797 C17.2033898,2.89739742 16.7645701,2.40277465 16.2232585,2.33511072 L15.6777281,2.26691943 C12.1782144,1.82948019 6.50103017,1.82932039 3.00023796,2.26691943 L2.45470761,2.33511072 C1.90860315,2.40337377 1.47457627,2.89775397 1.47457627,3.44067797 C1.47457627,8.03658494 3.56569023,9.6237023 5.42950917,10.9703473 C6.65690213,11.8841421 7.9297541,12.8460314 7.9297541,14.7217155 Z" id="Shape" fill="#000000" fill-rule="nonzero"></path>
                        <path d="M15.253513,26.0675679 C15.5216585,26.0263147 15.6662466,25.7851856 15.5749233,25.5321631 C15.5749233,25.5321631 15.5217167,25.3625545 15.4453616,25.2061053 C14.7803256,23.8434683 13.9996469,21.3581861 12.6829544,20.4068504 C10.5896978,18.8485448 8.10870819,18.8485448 6.01545157,20.4068504 C4.69875901,21.3581861 3.91808039,23.8434683 3.25304438,25.2061053 C3.1766892,25.3625545 3.1234826,25.5321631 3.1234826,25.5321631 C3.03284708,25.7866058 3.1793249,26.0267112 3.44489289,26.0675679 L4.82475325,26.279854 C7.32353781,26.6642824 11.379765,26.6635291 13.8736527,26.279854 L15.253513,26.0675679 Z" id="Path" fill="#2362D7"></path>
                    </g>
                </g>
            </g>
        </g>
        <g id="Grid" transform="translate(-1268.000000, -296.000000)"></g>
    </g>
</svg>